<svg xmlns="http://www.w3.org/2000/svg" width="1200" height="420" viewBox="0 0 1200 420" role="img" aria-labelledby="title description">
<title id="title">Forever STUwave</title>
<desc id="description">WoW Forever custom UI alpha. Large angular lettering on dark plum, with cyan and hot pink rails, violet accents, two cut corners, and a faint horizon grid.</desc>
<defs>
  <clipPath id="panel"><path d="M36 12H1188V384L1164 408H12V36Z"/></clipPath>
  <linearGradient id="rail" x1="0" x2="1"><stop stop-color="#22e0ff"/><stop offset=".58" stop-color="#9875ff"/><stop offset="1" stop-color="#ff2e97"/></linearGradient>
</defs>
<rect width="1200" height="420" fill="#100b19"/>
<path d="M36 12H1188V384L1164 408H12V36Z" fill="#1a1025" stroke="#7143a0" stroke-width="1.5"/>
<g clip-path="url(#panel)">
  <path d="M780 12L1074 408H1188V12Z" fill="#241537"/>
  <g fill="none" stroke="#645088" stroke-width="1" opacity=".25">
    <path d="M12 328H1188M12 346H1188M12 372H1188M12 407H1188"/>
    <path d="M780 328L410 420M820 328L610 420M860 328L810 420M900 328L1010 420M940 328L1210 420M980 328L1410 420"/>
  </g>
  <path d="M780 328H1188" stroke="#22e0ff" stroke-width="1" opacity=".5"/>
  <path d="M12 399H1162L1188 373" fill="none" stroke="url(#rail)" stroke-width="3"/>
</g>
<path d="M12 76V36L36 12H258" fill="none" stroke="#22e0ff" stroke-width="3"/>
<path d="M948 408H1164L1188 384V344" fill="none" stroke="#ff2e97" stroke-width="3"/>
<path d="M64 67H1136" stroke="#4c2a68" stroke-width="1"/>
<path d="M833 132H1008L1022 146H1136M873 158H1014L1030 174H1136" fill="none" stroke="#754ba7" stroke-width="5"/>
<path d="M849 132H975" stroke="#22e0ff" stroke-width="5"/>
<path d="M889 158H996" stroke="#ff2e97" stroke-width="5"/>
<path d="M1075 98L1099 122L1075 146M1104 98L1128 122L1104 146" fill="none" stroke="#22e0ff" stroke-width="3" opacity=".8"/>
<path fill="#c4a7df" d="M68.556 42.172 67.485 47.0H65.445L64.867 35.1H66.125L66.635 45.725L68.046 40.115H69.1L70.545 45.725L71.072 35.1H72.245L71.667 47.0H69.525ZM79.11000000000001 47.0H78.43Q76.95100000000001 47.0 76.16050000000001 46.2775Q75.37 45.555 75.37 44.11V37.99Q75.37 36.545 76.16050000000001 35.822500000000005Q76.95100000000001 35.1 78.43 35.1H79.11000000000001Q80.58900000000001 35.1 81.37950000000001 35.822500000000005Q82.17 36.545 82.17 37.99V44.11Q82.17 45.555 81.37950000000001 46.2775Q80.58900000000001 47.0 79.11000000000001 47.0ZM79.28 36.391999999999996H78.26Q77.631 36.391999999999996 77.24000000000001 36.766Q76.849 37.14 76.849 37.667V44.433Q76.849 44.96 77.24000000000001 45.334Q77.631 45.708 78.26 45.708H79.28Q79.909 45.708 80.30000000000001 45.334Q80.691 44.96 80.691 44.433V37.667Q80.691 37.14 80.30000000000001 36.766Q79.909 36.391999999999996 79.28 36.391999999999996ZM88.91600000000001 42.172 87.84500000000001 47.0H85.805L85.22700000000002 35.1H86.48500000000001L86.99500000000002 45.725L88.40600000000002 40.115H89.46000000000001L90.90500000000002 45.725L91.43200000000002 35.1H92.60500000000002L92.02700000000002 47.0H89.88500000000002ZM111.77500000000003 40.403999999999996V41.644999999999996H108.00100000000003V47.0H106.52200000000003V35.1H112.20000000000003V36.341H108.00100000000003V40.403999999999996ZM119.83000000000004 47.0H119.15000000000003Q117.67100000000003 47.0 116.88050000000004 46.2775Q116.09000000000003 45.555 116.09000000000003 44.11V37.99Q116.09000000000003 36.545 116.88050000000004 35.822500000000005Q117.67100000000003 35.1 119.15000000000003 35.1H119.83000000000004Q121.30900000000004 35.1 122.09950000000003 35.822500000000005Q122.89000000000003 36.545 122.89000000000003 37.99V44.11Q122.89000000000003 45.555 122.09950000000003 46.2775Q121.30900000000004 47.0 119.83000000000004 47.0ZM120.00000000000003 36.391999999999996H118.98000000000003Q118.35100000000003 36.391999999999996 117.96000000000004 36.766Q117.56900000000003 37.14 117.56900000000003 37.667V44.433Q117.56900000000003 44.96 117.96000000000004 45.334Q118.35100000000003 45.708 118.98000000000003 45.708H120.00000000000003Q120.62900000000003 45.708 121.02000000000004 45.334Q121.41100000000003 44.96 121.41100000000003 44.433V37.667Q121.41100000000003 37.14 121.02000000000004 36.766Q120.62900000000003 36.391999999999996 120.00000000000003 36.391999999999996ZM127.74900000000004 42.07V47.0H126.27000000000004V35.1H129.46600000000004Q130.91100000000003 35.1 131.65050000000002 35.7375Q132.39000000000004 36.375 132.39000000000004 37.751999999999995V39.384Q132.39000000000004 41.305 130.86000000000004 41.781L133.22300000000004 47.0H131.60800000000003L129.41500000000005 42.07ZM129.67000000000004 36.375H127.74900000000004V40.795H129.67000000000004Q130.31600000000003 40.795 130.61350000000004 40.4975Q130.91100000000003 40.2 130.91100000000003 39.554V37.599000000000004Q130.91100000000003 36.953 130.61350000000004 36.664Q130.31600000000003 36.375 129.67000000000004 36.375ZM142.68900000000005 35.1V36.341H138.49000000000004V40.234H142.26400000000004V41.475H138.49000000000004V45.759H142.68900000000005V47.0H137.01100000000005V35.1ZM146.39200000000005 35.1H147.88800000000006L149.92800000000005 45.504L152.12100000000007 35.1H153.58300000000006L150.91400000000004 47.0H148.89100000000005ZM163.04900000000006 35.1V36.341H158.85000000000005V40.234H162.62400000000005V41.475H158.85000000000005V45.759H163.04900000000006V47.0H157.37100000000007V35.1ZM168.46900000000008 42.07V47.0H166.99000000000007V35.1H170.18600000000006Q171.63100000000006 35.1 172.37050000000005 35.7375Q173.11000000000007 36.375 173.11000000000007 37.751999999999995V39.384Q173.11000000000007 41.305 171.58000000000007 41.781L173.94300000000007 47.0H172.32800000000006L170.13500000000008 42.07ZM170.39000000000007 36.375H168.46900000000008V40.795H170.39000000000007Q171.03600000000006 40.795 171.33350000000007 40.4975Q171.63100000000006 40.2 171.63100000000006 39.554V37.599000000000004Q171.63100000000006 36.953 171.33350000000007 36.664Q171.03600000000006 36.375 170.39000000000007 36.375ZM193.06200000000007 33.23H194.4900000000001L188.43800000000007 48.87H187.01000000000008ZM208.3730000000001 44.11V37.99Q208.3730000000001 36.545 209.1635000000001 35.822500000000005Q209.9540000000001 35.1 211.4330000000001 35.1H213.8470000000001V36.391999999999996H211.2630000000001Q210.6340000000001 36.391999999999996 210.2430000000001 36.766Q209.8520000000001 37.14 209.8520000000001 37.667V44.433Q209.8520000000001 44.96 210.2430000000001 45.334Q210.6340000000001 45.708 211.2630000000001 45.708H213.8470000000001V47.0H211.4330000000001Q209.9540000000001 47.0 209.1635000000001 46.2775Q208.3730000000001 45.555 208.3730000000001 44.11ZM221.4940000000001 47.0H221.0690000000001Q219.5900000000001 47.0 218.79950000000008 46.2775Q218.0090000000001 45.555 218.0090000000001 44.11V35.1H219.4880000000001V44.433Q219.4880000000001 44.96 219.8790000000001 45.334Q220.2700000000001 45.708 220.89900000000011 45.708H221.6640000000001Q222.2930000000001 45.708 222.68400000000008 45.334Q223.0750000000001 44.96 223.0750000000001 44.433V35.1H224.55400000000012V44.11Q224.55400000000012 45.555 223.7635000000001 46.2775Q222.9730000000001 47.0 221.4940000000001 47.0ZM231.2830000000001 47.0H228.8690000000001V45.708H231.45300000000012Q232.0820000000001 45.708 232.47300000000013 45.334Q232.86400000000012 44.96 232.86400000000012 44.433V42.665Q232.86400000000012 42.155 232.60050000000012 41.8405Q232.3370000000001 41.525999999999996 231.81000000000012 41.525999999999996H231.3000000000001Q230.04200000000012 41.525999999999996 229.3110000000001 40.7865Q228.5800000000001 40.047 228.5800000000001 38.635999999999996V37.99Q228.5800000000001 36.545 229.3705000000001 35.822500000000005Q230.16100000000012 35.1 231.6400000000001 35.1H234.0710000000001V36.391999999999996H231.4700000000001Q230.84100000000012 36.391999999999996 230.4500000000001 36.766Q230.0590000000001 37.14 230.0590000000001 37.667V38.959Q230.0590000000001 39.486 230.39900000000011 39.8345Q230.73900000000012 40.183 231.2830000000001 40.183H231.79300000000012Q233.0000000000001 40.183 233.6715000000001 40.879999999999995Q234.3430000000001 41.577 234.3430000000001 42.988V44.11Q234.3430000000001 45.555 233.55250000000012 46.2775Q232.7620000000001 47.0 231.2830000000001 47.0ZM240.90200000000013 47.0V36.391999999999996H238.19900000000013V35.1H245.08400000000012V36.391999999999996H242.3810000000001V47.0ZM252.17000000000013 47.0H251.49000000000012Q250.0110000000001 47.0 249.22050000000013 46.2775Q248.43000000000012 45.555 248.43000000000012 44.11V37.99Q248.43000000000012 36.545 249.22050000000013 35.822500000000005Q250.0110000000001 35.1 251.49000000000012 35.1H252.17000000000013Q253.64900000000011 35.1 254.43950000000012 35.822500000000005Q255.23000000000013 36.545 255.23000000000013 37.99V44.11Q255.23000000000013 45.555 254.43950000000012 46.2775Q253.64900000000011 47.0 252.17000000000013 47.0ZM252.34000000000012 36.391999999999996H251.32000000000014Q250.69100000000012 36.391999999999996 250.30000000000013 36.766Q249.90900000000013 37.14 249.90900000000013 37.667V44.433Q249.90900000000013 44.96 250.30000000000013 45.334Q250.69100000000012 45.708 251.32000000000014 45.708H252.34000000000012Q252.96900000000014 45.708 253.36000000000013 45.334Q253.75100000000012 44.96 253.75100000000012 44.433V37.667Q253.75100000000012 37.14 253.36000000000013 36.766Q252.96900000000014 36.391999999999996 252.34000000000012 36.391999999999996ZM262.6900000000001 43.005H261.2790000000001L259.6130000000001 36.324V47.0H258.32100000000014V35.1H260.68400000000014L262.04400000000015 41.186L263.4210000000001 35.1H265.7160000000001V47.0H264.39000000000016V36.324ZM282.5740000000001 47.0H282.14900000000017Q280.67000000000013 47.0 279.8795000000001 46.2775Q279.08900000000017 45.555 279.08900000000017 44.11V35.1H280.56800000000015V44.433Q280.56800000000015 44.96 280.9590000000002 45.334Q281.35000000000014 45.708 281.97900000000016 45.708H282.74400000000014Q283.37300000000016 45.708 283.7640000000001 45.334Q284.15500000000014 44.96 284.15500000000014 44.433V35.1H285.6340000000001V44.11Q285.6340000000001 45.555 284.8435000000002 46.2775Q284.05300000000017 47.0 282.5740000000001 47.0ZM291.80200000000013 45.759V36.341H290.27200000000016V35.1H294.81100000000015V36.341H293.2810000000002V45.759H294.81100000000015V47.0H290.27200000000016V45.759Z"/><path fill="#ff5da9" d="M1072.941 43.991 1072.278 47.0H1070.765L1073.638 35.1H1075.593L1078.415 47.0H1076.902L1076.256 43.991ZM1075.984 42.716 1074.59 36.222 1073.213 42.716ZM1083.614 35.1V45.708H1087.405V47.0H1082.135V35.1ZM1095.1370000000002 42.376H1093.3690000000001V47.0H1091.89V35.1H1095.103Q1096.5480000000002 35.1 1097.2875000000001 35.7375Q1098.027 36.375 1098.027 37.751999999999995V39.69Q1098.027 41.067 1097.296 41.7215Q1096.565 42.376 1095.1370000000002 42.376ZM1095.307 36.375H1093.3690000000001V41.101H1095.307Q1095.9530000000002 41.101 1096.2505 40.8035Q1096.5480000000002 40.506 1096.5480000000002 39.86V37.599000000000004Q1096.5480000000002 36.953 1096.2505 36.664Q1095.9530000000002 36.375 1095.307 36.375ZM1103.3790000000001 41.525999999999996V47.0H1101.9V35.1H1103.3790000000001V40.268H1106.881V35.1H1108.3600000000001V47.0H1106.881V41.525999999999996ZM1113.6610000000003 43.991 1112.9980000000003 47.0H1111.4850000000004L1114.3580000000002 35.1H1116.3130000000003L1119.1350000000002 47.0H1117.6220000000003L1116.9760000000003 43.991ZM1116.7040000000002 42.716 1115.3100000000002 36.222 1113.9330000000002 42.716Z"/><path fill="#f2eafa" d="M69.336 165.0V98.76H130.332V110.99600000000001H81.572V125.71600000000001H120.764V138.044H81.572V165.0ZM151.27200000000002 165.0Q147.776 165.0 144.87800000000001 163.252Q141.98000000000002 161.504 140.23200000000003 158.606Q138.484 155.708 138.484 152.212V111.548Q138.484 108.05199999999999 140.23200000000003 105.154Q141.98000000000002 102.256 144.87800000000001 100.50800000000001Q147.776 98.76 151.27200000000002 98.76H191.93600000000004Q195.43200000000002 98.76 198.33 100.50800000000001Q201.228 102.256 202.976 105.154Q204.72400000000002 108.05199999999999 204.72400000000002 111.548V152.212Q204.72400000000002 155.708 202.976 158.606Q201.228 161.504 198.33 163.252Q195.43200000000002 165.0 191.93600000000004 165.0ZM151.73200000000003 152.764H191.29200000000003Q191.752 152.764 192.12 152.442Q192.48800000000003 152.12 192.48800000000003 151.66V112.1Q192.48800000000003 111.64 192.12 111.31800000000001Q191.752 110.99600000000001 191.29200000000003 110.99600000000001H151.73200000000003Q151.27200000000002 110.99600000000001 150.95000000000002 111.31800000000001Q150.62800000000001 111.64 150.62800000000001 112.1V151.66Q150.62800000000001 152.12 150.95000000000002 152.442Q151.27200000000002 152.764 151.73200000000003 152.764ZM270.652 165.0 250.68800000000002 141.172H266.604L283.9 161.596V165.0ZM217.844 165.0V98.852H271.204Q274.7 98.852 277.644 100.6Q280.588 102.348 282.336 105.24600000000001Q284.084 108.144 284.084 111.64V129.488Q284.084 132.984 282.336 135.928Q280.588 138.872 277.644 140.574Q274.7 142.276 271.204 142.276L229.988 142.368V165.0ZM231.092 130.04H270.652Q271.112 130.04 271.48 129.764Q271.848 129.488 271.848 129.028V112.1Q271.848 111.64 271.48 111.31800000000001Q271.112 110.99600000000001 270.652 110.99600000000001H231.092Q230.632 110.99600000000001 230.31 111.31800000000001Q229.988 111.64 229.988 112.1V129.028Q229.988 129.488 230.31 129.764Q230.632 130.04 231.092 130.04ZM296.928 165.0V98.76H357.924V110.99600000000001H309.164V125.71600000000001H348.356V138.044H309.164V152.764H357.924V165.0ZM406.64799999999997 165.0 368.284 98.76H382.45199999999994L412.07599999999996 150.28L441.792 98.76H455.86799999999994L417.50399999999996 165.0ZM465.676 165.0V98.76H526.672V110.99600000000001H477.912V125.71600000000001H517.1039999999999V138.044H477.912V152.764H526.672V165.0ZM591.772 165.0 571.808 141.172H587.724L605.02 161.596V165.0ZM538.964 165.0V98.852H592.3240000000001Q595.82 98.852 598.764 100.6Q601.708 102.348 603.4559999999999 105.24600000000001Q605.204 108.144 605.204 111.64V129.488Q605.204 132.984 603.4559999999999 135.928Q601.708 138.872 598.764 140.574Q595.82 142.276 592.3240000000001 142.276L551.1080000000001 142.368V165.0ZM552.212 130.04H591.772Q592.232 130.04 592.5999999999999 129.764Q592.968 129.488 592.968 129.028V112.1Q592.968 111.64 592.5999999999999 111.31800000000001Q592.232 110.99600000000001 591.772 110.99600000000001H552.212Q551.7520000000001 110.99600000000001 551.4300000000001 111.31800000000001Q551.1080000000001 111.64 551.1080000000001 112.1V129.028Q551.1080000000001 129.488 551.4300000000001 129.764Q551.7520000000001 130.04 552.212 130.04Z"/><path fill="#774386" d="M99.256 304.0Q92.872 304.0 87.58 300.808Q82.288 297.616 79.096 292.32399999999996Q75.904 287.032 75.904 280.648V271.408H98.08V279.64Q98.08 280.48 98.668 281.068Q99.256 281.656 100.096 281.656H172.50400000000002Q173.344 281.656 173.93200000000002 281.068Q174.52 280.48 174.52 279.64V256.624Q174.52 255.784 173.93200000000002 255.28Q173.344 254.776 172.50400000000002 254.776H99.256Q92.872 254.776 87.58 251.584Q82.288 248.392 79.096 243.1Q75.904 237.808 75.904 231.256V206.392Q75.904 200.00799999999998 79.096 194.71599999999998Q82.288 189.42399999999998 87.58 186.23199999999997Q92.872 183.04 99.256 183.04H173.512Q179.89600000000002 183.04 185.18800000000002 186.23199999999997Q190.48000000000002 189.42399999999998 193.67200000000003 194.71599999999998Q196.864 200.00799999999998 196.864 206.392V215.632H174.52V207.39999999999998Q174.52 206.56 173.93200000000002 205.972Q173.344 205.38400000000001 172.50400000000002 205.38400000000001H100.096Q99.256 205.38400000000001 98.668 205.972Q98.08 206.56 98.08 207.39999999999998V230.416Q98.08 231.256 98.668 231.76Q99.256 232.264 100.096 232.264H173.512Q179.89600000000002 232.264 185.18800000000002 235.45600000000002Q190.48000000000002 238.648 193.67200000000003 243.94Q196.864 249.232 196.864 255.784V280.648Q196.864 287.032 193.67200000000003 292.32399999999996Q190.48000000000002 297.616 185.18800000000002 300.808Q179.89600000000002 304.0 173.512 304.0ZM258.52 304.0V205.38400000000001H209.12800000000001V183.04H330.088V205.38400000000001H280.86400000000003V304.0ZM365.704 304.0Q359.32000000000005 304.0 354.028 300.808Q348.73600000000005 297.616 345.54400000000004 292.32399999999996Q342.35200000000003 287.032 342.35200000000003 280.648V183.04H364.528V279.64Q364.528 280.48 365.116 281.068Q365.704 281.656 366.54400000000004 281.656H438.78400000000005Q439.624 281.656 440.29600000000005 281.068Q440.968 280.48 440.968 279.64V183.04H463.312V280.648Q463.312 287.032 460.12 292.32399999999996Q456.92800000000005 297.616 451.6360000000001 300.808Q446.34400000000005 304.0 439.96000000000004 304.0H365.704ZM516.568 304.0 478.264 206.56H501.61600000000004L525.304 264.016L550.168 206.56H573.0160000000001L599.5600000000001 264.352L621.568 206.56H644.9200000000001L608.296 304.0H591.1600000000001L561.76 238.98399999999998L533.7040000000001 304.0ZM682.216 304.0Q675.8320000000001 304.0 670.5400000000001 300.808Q665.248 297.616 662.1400000000001 292.408Q659.032 287.2 659.032 280.816V244.192H735.9760000000001V230.584Q735.9760000000001 229.744 735.3880000000001 229.156Q734.8000000000001 228.56799999999998 733.96 228.56799999999998H659.032V206.56H734.8000000000001Q741.1840000000001 206.56 746.4760000000001 209.752Q751.768 212.944 754.876 218.152Q757.984 223.36 757.984 229.744V304.0ZM683.056 281.992H735.9760000000001V264.016H681.0400000000001V279.976Q681.0400000000001 280.816 681.628 281.404Q682.216 281.992 683.056 281.992ZM824.008 304.0 770.416 206.56H795.784L834.2560000000001 277.288L872.5600000000001 206.56H897.9280000000001L844.168 304.0ZM931.36 304.0Q924.9760000000001 304.0 919.768 300.808Q914.5600000000001 297.616 911.368 292.408Q908.176 287.2 908.176 280.816V229.744Q908.176 223.36 911.368 218.152Q914.5600000000001 212.944 919.768 209.752Q924.9760000000001 206.56 931.36 206.56H983.9440000000001Q990.3280000000001 206.56 995.6200000000001 209.752Q1000.912 212.944 1004.02 218.152Q1007.128 223.36 1007.128 229.744V266.368H930.1840000000001V279.976Q930.1840000000001 280.816 930.772 281.404Q931.36 281.992 932.2 281.992H1007.128V304.0H931.36ZM930.1840000000001 246.54399999999998H985.1200000000001V230.584Q985.1200000000001 229.744 984.5320000000002 229.156Q983.9440000000001 228.56799999999998 983.104 228.56799999999998H932.2Q931.36 228.56799999999998 930.772 229.156Q930.1840000000001 229.744 930.1840000000001 230.584Z"/><path fill="#22e0ff" d="M96.256 300.0Q89.872 300.0 84.58 296.808Q79.288 293.616 76.096 288.32399999999996Q72.904 283.032 72.904 276.648V267.408H95.08V275.64Q95.08 276.48 95.668 277.068Q96.256 277.656 97.096 277.656H169.50400000000002Q170.344 277.656 170.93200000000002 277.068Q171.52 276.48 171.52 275.64V252.624Q171.52 251.784 170.93200000000002 251.28Q170.344 250.776 169.50400000000002 250.776H96.256Q89.872 250.776 84.58 247.584Q79.288 244.392 76.096 239.1Q72.904 233.808 72.904 227.256V202.392Q72.904 196.00799999999998 76.096 190.71599999999998Q79.288 185.42399999999998 84.58 182.23199999999997Q89.872 179.04 96.256 179.04H170.512Q176.89600000000002 179.04 182.18800000000002 182.23199999999997Q187.48000000000002 185.42399999999998 190.67200000000003 190.71599999999998Q193.864 196.00799999999998 193.864 202.392V211.632H171.52V203.39999999999998Q171.52 202.56 170.93200000000002 201.972Q170.344 201.38400000000001 169.50400000000002 201.38400000000001H97.096Q96.256 201.38400000000001 95.668 201.972Q95.08 202.56 95.08 203.39999999999998V226.416Q95.08 227.256 95.668 227.76Q96.256 228.264 97.096 228.264H170.512Q176.89600000000002 228.264 182.18800000000002 231.45600000000002Q187.48000000000002 234.648 190.67200000000003 239.94Q193.864 245.232 193.864 251.784V276.648Q193.864 283.032 190.67200000000003 288.32399999999996Q187.48000000000002 293.616 182.18800000000002 296.808Q176.89600000000002 300.0 170.512 300.0ZM255.52 300.0V201.38400000000001H206.12800000000001V179.04H327.088V201.38400000000001H277.86400000000003V300.0ZM362.704 300.0Q356.32000000000005 300.0 351.028 296.808Q345.73600000000005 293.616 342.54400000000004 288.32399999999996Q339.35200000000003 283.032 339.35200000000003 276.648V179.04H361.528V275.64Q361.528 276.48 362.116 277.068Q362.704 277.656 363.54400000000004 277.656H435.78400000000005Q436.624 277.656 437.29600000000005 277.068Q437.968 276.48 437.968 275.64V179.04H460.312V276.648Q460.312 283.032 457.12 288.32399999999996Q453.92800000000005 293.616 448.6360000000001 296.808Q443.34400000000005 300.0 436.96000000000004 300.0H362.704ZM513.568 300.0 475.264 202.56H498.61600000000004L522.304 260.016L547.168 202.56H570.0160000000001L596.5600000000001 260.352L618.568 202.56H641.9200000000001L605.296 300.0H588.1600000000001L558.76 234.98399999999998L530.7040000000001 300.0ZM679.216 300.0Q672.8320000000001 300.0 667.5400000000001 296.808Q662.248 293.616 659.1400000000001 288.408Q656.032 283.2 656.032 276.816V240.192H732.9760000000001V226.584Q732.9760000000001 225.744 732.3880000000001 225.156Q731.8000000000001 224.56799999999998 730.96 224.56799999999998H656.032V202.56H731.8000000000001Q738.1840000000001 202.56 743.4760000000001 205.752Q748.768 208.944 751.876 214.152Q754.984 219.36 754.984 225.744V300.0ZM680.056 277.992H732.9760000000001V260.016H678.0400000000001V275.976Q678.0400000000001 276.816 678.628 277.404Q679.216 277.992 680.056 277.992ZM821.008 300.0 767.416 202.56H792.784L831.2560000000001 273.288L869.5600000000001 202.56H894.9280000000001L841.168 300.0ZM928.36 300.0Q921.9760000000001 300.0 916.768 296.808Q911.5600000000001 293.616 908.368 288.408Q905.176 283.2 905.176 276.816V225.744Q905.176 219.36 908.368 214.152Q911.5600000000001 208.944 916.768 205.752Q921.9760000000001 202.56 928.36 202.56H980.9440000000001Q987.3280000000001 202.56 992.6200000000001 205.752Q997.912 208.944 1001.02 214.152Q1004.128 219.36 1004.128 225.744V262.368H927.1840000000001V275.976Q927.1840000000001 276.816 927.772 277.404Q928.36 277.992 929.2 277.992H1004.128V300.0H928.36ZM927.1840000000001 242.54399999999998H982.1200000000001V226.584Q982.1200000000001 225.744 981.5320000000002 225.156Q980.9440000000001 224.56799999999998 980.104 224.56799999999998H929.2Q928.36 224.56799999999998 927.772 225.156Q927.1840000000001 225.744 927.1840000000001 226.584Z"/><path fill="#ff2e97" d="M513.568 300.0 475.264 202.56H498.61600000000004L522.304 260.016L547.168 202.56H570.0160000000001L596.5600000000001 260.352L618.568 202.56H641.9200000000001L605.296 300.0H588.1600000000001L558.76 234.98399999999998L530.7040000000001 300.0ZM679.216 300.0Q672.8320000000001 300.0 667.5400000000001 296.808Q662.248 293.616 659.1400000000001 288.408Q656.032 283.2 656.032 276.816V240.192H732.9760000000001V226.584Q732.9760000000001 225.744 732.3880000000001 225.156Q731.8000000000001 224.56799999999998 730.96 224.56799999999998H656.032V202.56H731.8000000000001Q738.1840000000001 202.56 743.4760000000001 205.752Q748.768 208.944 751.876 214.152Q754.984 219.36 754.984 225.744V300.0ZM680.056 277.992H732.9760000000001V260.016H678.0400000000001V275.976Q678.0400000000001 276.816 678.628 277.404Q679.216 277.992 680.056 277.992ZM821.008 300.0 767.416 202.56H792.784L831.2560000000001 273.288L869.5600000000001 202.56H894.9280000000001L841.168 300.0ZM928.36 300.0Q921.9760000000001 300.0 916.768 296.808Q911.5600000000001 293.616 908.368 288.408Q905.176 283.2 905.176 276.816V225.744Q905.176 219.36 908.368 214.152Q911.5600000000001 208.944 916.768 205.752Q921.9760000000001 202.56 928.36 202.56H980.9440000000001Q987.3280000000001 202.56 992.6200000000001 205.752Q997.912 208.944 1001.02 214.152Q1004.128 219.36 1004.128 225.744V262.368H927.1840000000001V275.976Q927.1840000000001 276.816 927.772 277.404Q928.36 277.992 929.2 277.992H1004.128V300.0H928.36ZM927.1840000000001 242.54399999999998H982.1200000000001V226.584Q982.1200000000001 225.744 981.5320000000002 225.156Q980.9440000000001 224.56799999999998 980.104 224.56799999999998H929.2Q928.36 224.56799999999998 927.772 225.156Q927.1840000000001 225.744 927.1840000000001 226.584Z"/><path fill="#d8c3e9" d="M67.287 361.637 66.546 365.0H64.855L68.066 351.7H70.251L73.405 365.0H71.714L70.992 361.637ZM70.688 360.212 69.13 352.954 67.591 360.212ZM89.16000000000001 365.0H87.62100000000001V351.7H90.319L93.321 363.594V351.7H94.86V365.0H92.143L89.16000000000001 353.106ZM105.483 351.7V353.087H100.79V357.438H105.00800000000001V358.825H100.79V363.613H105.483V365.0H99.137V351.7ZM113.75000000000001 365.0H112.99000000000001Q111.337 365.0 110.4535 364.1925Q109.57000000000001 363.385 109.57000000000001 361.77V354.93Q109.57000000000001 353.315 110.4535 352.5075Q111.337 351.7 112.99000000000001 351.7H113.75000000000001Q115.403 351.7 116.28650000000002 352.5075Q117.17000000000002 353.315 117.17000000000002 354.93V361.77Q117.17000000000002 363.385 116.28650000000002 364.1925Q115.403 365.0 113.75000000000001 365.0ZM113.94000000000001 353.144H112.80000000000001Q112.09700000000001 353.144 111.66000000000001 353.562Q111.22300000000001 353.98 111.22300000000001 354.569V362.131Q111.22300000000001 362.72 111.66000000000001 363.13800000000003Q112.09700000000001 363.556 112.80000000000001 363.556H113.94000000000001Q114.64300000000001 363.556 115.08000000000001 363.13800000000003Q115.51700000000001 362.72 115.51700000000001 362.131V354.569Q115.51700000000001 353.98 115.08000000000001 353.562Q114.64300000000001 353.144 113.94000000000001 353.144ZM122.34000000000002 365.0H120.80100000000002V351.7H123.49900000000001L126.501 363.594V351.7H128.04000000000002V365.0H125.32300000000001L122.34000000000002 353.106ZM143.491 361.77V354.93Q143.491 353.315 144.3745 352.5075Q145.258 351.7 146.911 351.7H149.609V353.144H146.721Q146.01800000000003 353.144 145.58100000000002 353.562Q145.144 353.98 145.144 354.569V362.131Q145.144 362.72 145.58100000000002 363.13800000000003Q146.01800000000003 363.556 146.721 363.556H149.609V365.0H146.911Q145.258 365.0 144.3745 364.1925Q143.491 363.385 143.491 361.77ZM157.99 365.0H157.23000000000002Q155.57700000000003 365.0 154.69350000000003 364.1925Q153.81000000000003 363.385 153.81000000000003 361.77V354.93Q153.81000000000003 353.315 154.69350000000003 352.5075Q155.57700000000003 351.7 157.23000000000002 351.7H157.99Q159.64300000000003 351.7 160.52650000000003 352.5075Q161.41000000000003 353.315 161.41000000000003 354.93V361.77Q161.41000000000003 363.385 160.52650000000003 364.1925Q159.64300000000003 365.0 157.99 365.0ZM158.18 353.144H157.04000000000002Q156.33700000000002 353.144 155.90000000000003 353.562Q155.46300000000002 353.98 155.46300000000002 354.569V362.131Q155.46300000000002 362.72 155.90000000000003 363.13800000000003Q156.33700000000002 363.556 157.04000000000002 363.556H158.18Q158.883 363.556 159.32 363.13800000000003Q159.757 362.72 159.757 362.131V354.569Q159.757 353.98 159.32 353.562Q158.883 353.144 158.18 353.144ZM165.61100000000002 361.77V354.93Q165.61100000000002 353.315 166.49450000000002 352.5075Q167.37800000000001 351.7 169.031 351.7H171.729V353.144H168.841Q168.13800000000003 353.144 167.70100000000002 353.562Q167.264 353.98 167.264 354.569V362.131Q167.264 362.72 167.70100000000002 363.13800000000003Q168.13800000000003 363.556 168.841 363.556H171.729V365.0H169.031Q167.37800000000001 365.0 166.49450000000002 364.1925Q165.61100000000002 363.385 165.61100000000002 361.77ZM177.79200000000003 360.098V365.0H176.139V351.7H177.79200000000003V357.438L181.40200000000002 351.7H183.20700000000002L179.54000000000002 357.571L183.43500000000003 365.0H181.53500000000003L178.514 359.015ZM190.99900000000002 359.832H189.02300000000002V365.0H187.37000000000003V351.7H190.961Q192.57600000000002 351.7 193.40250000000003 352.4125Q194.229 353.125 194.229 354.664V356.83Q194.229 358.369 193.41200000000003 359.1005Q192.59500000000003 359.832 190.99900000000002 359.832ZM191.18900000000002 353.125H189.02300000000002V358.407H191.18900000000002Q191.91100000000003 358.407 192.24350000000004 358.0745Q192.57600000000002 357.742 192.57600000000002 357.02V354.493Q192.57600000000002 353.771 192.24350000000004 353.448Q191.91100000000003 353.125 191.18900000000002 353.125ZM201.01400000000004 363.613V353.087H199.30400000000003V351.7H204.37700000000004V353.087H202.66700000000003V363.613H204.37700000000004V365.0H199.30400000000003V363.613ZM212.07400000000004 365.0V353.144H209.05300000000003V351.7H216.74800000000002V353.144H213.72700000000003V365.0ZM237.78500000000003 357.628V359.015H233.56700000000004V365.0H231.91400000000004V351.7H238.26000000000005V353.087H233.56700000000004V357.628ZM246.47000000000003 365.0H245.71000000000004Q244.05700000000004 365.0 243.17350000000005 364.1925Q242.29000000000005 363.385 242.29000000000005 361.77V354.93Q242.29000000000005 353.315 243.17350000000005 352.5075Q244.05700000000004 351.7 245.71000000000004 351.7H246.47000000000003Q248.12300000000005 351.7 249.00650000000005 352.5075Q249.89000000000004 353.315 249.89000000000004 354.93V361.77Q249.89000000000004 363.385 249.00650000000005 364.1925Q248.12300000000005 365.0 246.47000000000003 365.0ZM246.66000000000003 353.144H245.52000000000004Q244.81700000000004 353.144 244.38000000000005 353.562Q243.94300000000004 353.98 243.94300000000004 354.569V362.131Q243.94300000000004 362.72 244.38000000000005 363.13800000000003Q244.81700000000004 363.556 245.52000000000004 363.556H246.66000000000003Q247.36300000000003 363.556 247.8 363.13800000000003Q248.23700000000002 362.72 248.23700000000002 362.131V354.569Q248.23700000000002 353.98 247.8 353.562Q247.36300000000003 353.144 246.66000000000003 353.144ZM255.00300000000004 359.49V365.0H253.35000000000005V351.7H256.922Q258.53700000000003 351.7 259.36350000000004 352.4125Q260.19000000000005 353.125 260.19000000000005 354.664V356.488Q260.19000000000005 358.635 258.48 359.167L261.12100000000004 365.0H259.31600000000003L256.86500000000007 359.49ZM257.15000000000003 353.125H255.00300000000004V358.065H257.15000000000003Q257.872 358.065 258.20450000000005 357.73249999999996Q258.53700000000003 357.4 258.53700000000003 356.678V354.493Q258.53700000000003 353.771 258.20450000000005 353.448Q257.872 353.125 257.15000000000003 353.125ZM279.232 359.604 278.035 365.0H275.75500000000005L275.10900000000004 351.7H276.51500000000004L277.08500000000004 363.575L278.66200000000003 357.305H279.84000000000003L281.45500000000004 363.575L282.04400000000004 351.7H283.355L282.70900000000006 365.0H280.31500000000005ZM290.71000000000004 365.0H289.95000000000005Q288.297 365.0 287.4135 364.1925Q286.53000000000003 363.385 286.53000000000003 361.77V354.93Q286.53000000000003 353.315 287.4135 352.5075Q288.297 351.7 289.95000000000005 351.7H290.71000000000004Q292.36300000000006 351.7 293.2465000000001 352.5075Q294.13000000000005 353.315 294.13000000000005 354.93V361.77Q294.13000000000005 363.385 293.2465000000001 364.1925Q292.36300000000006 365.0 290.71000000000004 365.0ZM290.90000000000003 353.144H289.76000000000005Q289.0570000000001 353.144 288.62000000000006 353.562Q288.18300000000005 353.98 288.18300000000005 354.569V362.131Q288.18300000000005 362.72 288.62000000000006 363.13800000000003Q289.0570000000001 363.556 289.76000000000005 363.556H290.90000000000003Q291.60300000000007 363.556 292.0400000000001 363.13800000000003Q292.47700000000003 362.72 292.47700000000003 362.131V354.569Q292.47700000000003 353.98 292.0400000000001 353.562Q291.60300000000007 353.144 290.90000000000003 353.144ZM301.35200000000003 359.604 300.15500000000003 365.0H297.87500000000006L297.22900000000004 351.7H298.63500000000005L299.20500000000004 363.575L300.78200000000004 357.305H301.96000000000004L303.57500000000005 363.575L304.16400000000004 351.7H305.475L304.82900000000006 365.0H302.43500000000006ZM326.26500000000004 357.628V359.015H322.047V365.0H320.39400000000006V351.7H326.74000000000007V353.087H322.047V357.628ZM334.95000000000005 365.0H334.19000000000005Q332.53700000000003 365.0 331.6535 364.1925Q330.77000000000004 363.385 330.77000000000004 361.77V354.93Q330.77000000000004 353.315 331.6535 352.5075Q332.53700000000003 351.7 334.19000000000005 351.7H334.95000000000005Q336.60300000000007 351.7 337.4865000000001 352.5075Q338.37000000000006 353.315 338.37000000000006 354.93V361.77Q338.37000000000006 363.385 337.4865000000001 364.1925Q336.60300000000007 365.0 334.95000000000005 365.0ZM335.14000000000004 353.144H334.00000000000006Q333.2970000000001 353.144 332.86000000000007 353.562Q332.42300000000006 353.98 332.42300000000006 354.569V362.131Q332.42300000000006 362.72 332.86000000000007 363.13800000000003Q333.2970000000001 363.556 334.00000000000006 363.556H335.14000000000004Q335.8430000000001 363.556 336.2800000000001 363.13800000000003Q336.71700000000004 362.72 336.71700000000004 362.131V354.569Q336.71700000000004 353.98 336.2800000000001 353.562Q335.8430000000001 353.144 335.14000000000004 353.144ZM343.48300000000006 359.49V365.0H341.83000000000004V351.7H345.40200000000004Q347.01700000000005 351.7 347.84350000000006 352.4125Q348.6700000000001 353.125 348.6700000000001 354.664V356.488Q348.6700000000001 358.635 346.96000000000004 359.167L349.60100000000006 365.0H347.79600000000005L345.3450000000001 359.49ZM345.63000000000005 353.125H343.48300000000006V358.065H345.63000000000005Q346.35200000000003 358.065 346.68450000000007 357.73249999999996Q347.01700000000005 357.4 347.01700000000005 356.678V354.493Q347.01700000000005 353.771 346.68450000000007 353.448Q346.35200000000003 353.125 345.63000000000005 353.125ZM359.86300000000006 351.7V353.087H355.1700000000001V357.438H359.38800000000003V358.825H355.1700000000001V363.613H359.86300000000006V365.0H353.51700000000005V351.7ZM363.6840000000001 351.7H365.35600000000005L367.6360000000001 363.328L370.08700000000005 351.7H371.72100000000006L368.73800000000006 365.0H366.4770000000001ZM381.98300000000006 351.7V353.087H377.2900000000001V357.438H381.50800000000004V358.825H377.2900000000001V363.613H381.98300000000006V365.0H375.63700000000006V351.7ZM387.72300000000007 359.49V365.0H386.07000000000005V351.7H389.64200000000005Q391.25700000000006 351.7 392.0835000000001 352.4125Q392.9100000000001 353.125 392.9100000000001 354.664V356.488Q392.9100000000001 358.635 391.20000000000005 359.167L393.84100000000007 365.0H392.03600000000006L389.5850000000001 359.49ZM389.87000000000006 353.125H387.72300000000007V358.065H389.87000000000006Q390.59200000000004 358.065 390.9245000000001 357.73249999999996Q391.25700000000006 357.4 391.25700000000006 356.678V354.493Q391.25700000000006 353.771 390.9245000000001 353.448Q390.59200000000004 353.125 389.87000000000006 353.125ZM401.88000000000005 363.1V365.0H399.9800000000001V363.1Z"/></svg>
